Coordinates
version=1
nRows=16
nColumns=36
inDegrees=yes

Units are S.I. units (second, meters, Newtons, ...)
If the header above contains a line with 'inDegrees', this indicates whether rotational values are in degrees (yes) or radians (no).

endheader
time	pelvis_tilt	pelvis_list	pelvis_rotation	pelvis_tx	pelvis_ty	pelvis_tz	hip_flexion_r	hip_adduction_r	hip_rotation_r	knee_angle_r	knee_angle_r_beta	ankle_angle_r	subtalar_angle_r	mtp_angle_r	hip_flexion_l	hip_adduction_l	hip_rotation_l	knee_angle_l	knee_angle_l_beta	ankle_angle_l	subtalar_angle_l	mtp_angle_l	lumbar_extension	lumbar_bending	lumbar_rotation	arm_flex_r	arm_add_r	arm_rot_r	elbow_flex_r	pro_sup_r	arm_flex_l	arm_add_l	arm_rot_l	elbow_flex_l	pro_sup_l
      4.38333330	    -16.50445532	     -3.02879153	     -0.45684245	      1.68154506	      0.82284516	      0.16931232	     42.67890931	     -1.35745838	      0.62951141	     50.26262221	      0.87724825	     10.59875802	    -21.08985751	     -7.49999987	     44.78969817	    -12.33164908	      0.80346511	     51.01863188	      0.89044311	     16.23370233	    -13.63444428	     -7.49999987	     -9.94795698	      0.35932982	      2.58524986	     13.37745295	     -9.66545893	   -363.09246910	     17.94821171	     65.56163661	      8.58535797	    -12.54987717	     17.51660614	     24.02693795	     69.38889271
      4.40000000	    -18.58453988	     -2.58109096	     -0.12350519	      1.67739634	      0.79419787	      0.17297218	     50.86492440	     -1.71531196	      1.12599197	     61.30680725	      1.07000564	     20.94697589	    -17.96007938	     -7.49999987	     52.88115127	    -12.47183853	      1.66247567	     61.38311856	      1.07133752	     23.19441926	    -13.69912177	     -7.49999987	    -10.98446867	     -0.37366933	      2.30464538	     17.38844157	     -8.58149158	   -367.80987636	     22.76716502	     58.65780832	     11.47471161	    -13.01928278	     12.74980783	     30.88162833	     81.98754553
      4.41666670	    -19.71065408	     -2.52403893	     -0.23339444	      1.66166829	      0.78591314	      0.17153260	     56.17215024	     -1.69378077	      1.23356794	     67.98808695	      1.18661597	     27.70291589	    -14.57544681	     -7.49999987	     58.68659087	    -12.94126106	      2.14586634	     68.37577827	      1.19338246	     26.68678325	    -13.94497059	     -7.49999987	    -13.66468386	     -0.59956264	      2.76178765	     23.18926293	     -8.95039845	   -367.07002411	     26.74033344	     58.14311357	     16.72393570	    -13.30832924	     12.89242675	     36.55981089	     80.68648462
      4.43333330	    -20.82143711	     -2.24597298	     -0.45590619	      1.65463062	      0.77816802	      0.16455074	     59.92863956	     -2.04135753	      1.49769783	     71.52939047	      1.24842338	     31.20038841	    -11.67882521	     -7.49999987	     62.67084480	    -12.81968344	      2.19540038	     71.97437137	      1.25618976	     28.01898520	    -14.74513913	     -7.49999987	    -16.65575973	     -0.96364363	      2.98510148	     29.60567754	     -9.13096212	   -364.70051386	     29.62702074	     47.72950849	     21.97111267	    -12.98372182	     11.84813133	     42.45155066	     82.97866837
      4.45000000	    -23.07365889	     -1.90908543	     -0.75742423	      1.63075354	      0.75250594	      0.16460418	     65.46887361	     -2.41400200	      1.79584779	     74.93394239	      1.30784402	     33.11479999	     -9.60508960	     -7.49999987	     68.14445081	    -12.63068610	      2.29025680	     75.26359351	      1.31359751	     28.84934031	    -15.01270241	     -7.49999987	    -18.97828603	     -1.33421363	      3.62243467	     36.29268727	     -9.31008185	   -363.60605174	     33.62209222	     47.85825956	     28.43233787	    -12.49335534	     13.17504531	     48.78856010	     82.45404334
      4.46666670	    -25.49286185	     -1.74906263	     -1.09533895	      1.62329612	      0.72940271	      0.17323216	     71.27300670	     -2.43310621	      1.77934828	     78.53602827	      1.37071227	     34.90558360	     -7.97198438	     -7.49999987	     73.82752790	    -12.72153885	      2.78116830	     78.46271747	      1.36943276	     29.47453367	    -15.66050116	     -7.49999987	    -20.17535074	     -1.69351553	      4.48840633	     42.12286617	     -9.39432979	   -361.95002198	     37.62010809	     48.35951167	     34.91621549	    -11.65455382	     14.34194845	     54.21403307	     82.26023186
      4.48333330	    -27.34660693	     -1.52112149	     -1.38932711	      1.61918950	      0.72087778	      0.17070926	     75.69714817	     -2.60120663	      1.75603273	     81.04660323	      1.41453007	     36.10151900	     -6.43922624	     -7.49999987	     77.90998007	    -12.64379765	      3.10738632	     80.40223049	      1.40328365	     29.94335491	    -16.31336449	     -7.49999987	    -22.01463918	     -1.91519519	      4.79025387	     46.35739484	    -10.06218724	   -358.35185050	     43.70045237	     49.70344289	     41.14412063	    -11.80560267	     16.85698058	     59.35211179	     82.54716333
      4.50000000	    -28.85660947	     -1.38197935	     -1.74052165	      1.61864184	      0.70335985	      0.17692329	     79.52633126	     -2.42124713	      1.73859504	     83.56469256	      1.45847902	     36.72761738	     -6.05665338	     -7.49999987	     81.31930986	    -12.98451088	      3.37443439	     82.22497088	      1.43509647	     30.34169121	    -16.75379048	     -7.49999987	    -23.19765110	     -2.50751446	      5.73337239	     48.60765182	    -10.82802557	   -356.67702280	     49.43373205	     62.32779383	     45.98253245	    -12.00908251	     19.94638889	     62.06293257	     82.33588969
      4.51666670	    -30.39191724	     -1.22196747	     -1.93353694	      1.60895176	      0.68892496	      0.17677216	     83.23753578	     -2.41851778	      1.69331761	     85.90827164	      1.49938219	     37.24444052	     -5.74451178	     -7.49999987	     84.65557640	    -13.18235449	      3.64790989	     84.01615888	      1.46635860	     30.69492244	    -16.96023154	     -7.49999987	    -23.91602777	     -2.94856643	      5.53674378	     51.69855407	    -10.76059897	   -354.24542980	     54.07142006	     63.84186603	     50.24805151	    -12.73821348	     21.73713708	     66.15981142	     82.31674907
      4.53333330	    -32.09131119	     -1.24532054	     -1.88998767	      1.59131277	      0.67669848	      0.19310340	     87.30162102	     -2.23700200	      1.41061886	     88.26428231	      1.54050234	     37.35731990	     -5.75376614	     -7.49999987	     88.70089158	    -13.63694526	      4.11599080	     85.89499559	      1.49915048	     30.43078980	    -17.28299564	     -7.49999987	    -24.41390127	     -3.57485928	      5.74199224	     55.23893505	     -9.99500543	   -353.88253831	     58.74773437	     78.94347678	     55.58884002	    -13.93321220	     23.71673377	     67.87169831	     85.44159063
      4.55000000	    -33.64697173	     -1.46905730	     -1.77783839	      1.57853545	      0.67215829	      0.18867742	     90.85263376	     -2.19749807	      0.88122335	     89.84762381	      1.56813686	     36.89836802	     -6.08874451	     -7.49999987	     92.51630755	    -13.89433603	      4.74383732	     87.34823464	      1.52451429	     29.57639237	    -17.67621388	     -7.49999987	    -25.42592744	     -3.42879743	      5.25281281	     58.97929504	     -9.27650795	   -351.70360014	     61.84313341	     79.79572180	     60.69824196	    -14.57323996	     24.94497688	     68.54550140	     85.76898513
      4.56666670	    -34.65686975	     -1.45148017	     -1.70715400	      1.56998712	      0.66368159	      0.18738172	     93.70887004	     -2.24373159	      0.69210538	     91.20918639	      1.59190061	     36.57087129	     -6.10866302	     -7.49999987	     95.36177354	    -14.07995316	      4.99077159	     88.54940248	      1.54547862	     29.07003851	    -17.73365793	     -7.49999987	    -26.44091694	     -3.46966026	      5.15999757	     62.30964745	     -8.52855245	   -351.37418773	     62.91655174	     79.99386961	     64.68382048	    -13.79926998	     24.71179474	     69.31502718	     85.82638955
      4.58333330	    -35.75997896	     -1.61874048	     -1.52349618	      1.56112352	      0.65314276	      0.19308963	     96.47307006	     -2.34019118	      0.36486717	     92.31420321	      1.61118679	     35.35686235	     -6.66985764	     -7.49999987	     98.29047992	    -14.07960556	      5.50946342	     89.43242634	      1.56089030	     26.83909443	    -19.24883154	     -7.49999987	    -27.18783699	     -3.57343671	      5.49415233	     64.73555256	    -10.38767357	   -348.00313209	     67.16769597	     83.38237298	     69.18589790	    -15.10969853	     29.64272513	     71.15246707	     87.27491982
      4.60000000	    -36.60838353	     -1.84133685	     -1.39995182	      1.55779419	      0.64269405	      0.19455232	     98.99604434	     -2.36286313	      0.06219541	     93.62191198	      1.63401062	     34.54505610	     -7.21910097	     -7.49999987	    101.02584206	    -14.13129128	      6.17359372	     90.54067218	      1.58023284	     25.82160563	    -19.81399756	     -7.49999987	    -27.30564601	     -3.56392433	      6.09039329	     65.31420513	    -11.07893215	   -349.32713826	     70.71709210	     93.47095406	     71.23037272	    -14.66231279	     30.55230681	     71.88261268	     91.09502812
      4.61666670	    -36.60406461	     -1.77664849	     -1.28258475	      1.55793886	      0.64000197	      0.18940763	    100.42375827	     -2.47273839	      0.09924227	     94.83246756	      1.65513880	     34.15898460	     -7.24649764	     -7.49999987	    102.45336363	    -14.13470520	      6.49323097	     91.51510920	      1.59723997	     25.48249296	    -19.80485289	     -7.49999987	    -27.99322752	     -3.50831988	      5.96499226	     66.27361383	    -11.10472731	   -349.39144320	     71.16332848	     93.49947767	     71.81606214	    -14.42098289	     30.41322765	     72.18415404	     91.10891539
      4.63333330	    -37.34126566	     -1.93147394	     -1.06689223	      1.55375253	      0.63310591	      0.18529954	    102.23139777	     -2.80594713	     -0.00055133	     95.57212051	      1.66804818	     33.13997018	     -7.82749608	     -7.49999987	    104.39014302	    -13.72931167	      7.00768259	     92.17489266	      1.60875536	     24.28747296	    -20.65612344	     -7.49999987	    -28.31350480	     -2.93732924	      6.05031544	     66.39961285	    -12.65500729	   -348.79681296	     74.95440181	     94.25040677	     71.60780758	    -14.43706851	     29.67811848	     75.51076594	     91.75233723
